# xmcd
#
# Track frame offsets: 
#        183
#        4433
#        109753
#        133988
#        199838
#
# Disc length: 4109 seconds
#
# Revision: 1
# Processed by: cddbd v1.5.2PL0 Copyright (c) Steve Scherf et al.
# Submitted via: ExactAudioCopy v0.99pb1
#
DISCID=46100b05
DTITLE=Charles Mingus - The Great Concert in Paris 1964 - Les Génies d
DTITLE=u Jazz IV 15
DYEAR=1990
DGENRE=Jazz
TTITLE0=Introduction and Presentation
TTITLE1=Good Bye Pork Pie Hat - 1
TTITLE2=Good Bye Pork Pie Hat - 2
TTITLE3=Orange was the Colour of Her Dress
TTITLE4=Parker Iana
EXTD=YEAR: 1964
EXTT0=
EXTT1=
EXTT2=
EXTT3=
EXTT4=
PLAYORDER=
